<svg width="22" height="22" viewBox="0 0 22 22" fill="none" xmlns="http://www.w3.org/2000/svg">
<path d="M11 21C16.5228 21 21 16.5228 21 11C21 5.47715 16.5228 1 11 1C5.47715 1 1 5.47715 1 11C1 16.5228 5.47715 21 11 21Z" stroke="#5673D3" stroke-width="2" stroke-linecap="round" stroke-linejoin="round"/>
<path fill-rule="evenodd" clip-rule="evenodd" d="M7.16737 11.1831C7.39052 10.939 7.75233 10.939 7.97549 11.1831L11 14.4911L14.0245 11.1831C14.2477 10.939 14.6095 10.939 14.8326 11.1831C15.0558 11.4271 15.0558 11.8229 14.8326 12.0669L11.4041 15.8169C11.1809 16.061 10.8191 16.061 10.5959 15.8169L7.16737 12.0669C6.94421 11.8229 6.94421 11.4271 7.16737 11.1831Z" fill="#5673D3" stroke="#5673D3" stroke-width="0.5" stroke-linecap="round" stroke-linejoin="round"/>
<path d="M11 7V14" stroke="#5673D3" stroke-width="2" stroke-linecap="round" stroke-linejoin="round"/>
</svg>
