<svg width="442" height="184" viewBox="0 0 442 184" fill="none" xmlns="http://www.w3.org/2000/svg">
<path opacity="0.15" d="M110.495 180.075H76.685V152.635H1.82539e-07V121.52L55.615 3.67494H93.835L38.22 121.52H76.685V77.4199H110.495V121.52H126.175V152.635H110.495V180.075ZM221.047 183.75C181.847 183.75 155.632 157.535 155.632 118.335V65.4149C155.632 26.2149 181.847 -5.23329e-05 221.047 -5.23329e-05C260.247 -5.23329e-05 286.462 26.2149 286.462 65.4149V118.335C286.462 157.535 260.247 183.75 221.047 183.75ZM221.047 152.145C238.687 152.145 252.407 138.425 252.407 120.785V62.7199C252.407 45.08 238.687 31.3599 221.047 31.3599C203.407 31.3599 189.687 45.08 189.687 62.7199V120.785C189.687 138.425 203.407 152.145 221.047 152.145ZM426.315 180.075H392.505V152.635H315.82V121.52L371.435 3.67494H409.655L354.04 121.52H392.505V77.4199H426.315V121.52H441.995V152.635H426.315V180.075Z" fill="#5673D3"/>
</svg>
